<?xml version="1.0" encoding="UTF-8" standalone="no"?>
<!DOCTYPE svg PUBLIC "-//W3C//DTD SVG 1.1//EN"
 "http://www.w3.org/Graphics/SVG/1.1/DTD/svg11.dtd">
<!-- Generated by graphviz version 15.0.0 (20260523.1842)
 -->
<!-- Title: ApplicationSessionAnatomy Pages: 1 -->
<svg width="1304pt" height="411pt"
 viewBox="0.00 0.00 1304.00 411.00" xmlns="http://www.w3.org/2000/svg" xmlns:xlink="http://www.w3.org/1999/xlink">
<g id="graph0" class="graph" transform="scale(1 1) rotate(0) translate(4 406.55)">
<title>ApplicationSessionAnatomy</title>
<polygon fill="white" stroke="none" points="-4,4 -4,-406.55 1299.51,-406.55 1299.51,4 -4,4"/>
<g id="clust1" class="cluster">
<title>cluster_family</title>
<path fill="#dde5ee" stroke="#1f3a5f" d="M511.01,-8C511.01,-8 727.01,-8 727.01,-8 733.01,-8 739.01,-14 739.01,-20 739.01,-20 739.01,-163 739.01,-163 739.01,-169 733.01,-175 727.01,-175 727.01,-175 511.01,-175 511.01,-175 505.01,-175 499.01,-169 499.01,-163 499.01,-163 499.01,-20 499.01,-20 499.01,-14 505.01,-8 511.01,-8"/>
<text xml:space="preserve" text-anchor="start" x="507.01" y="-162.5" font-family="Helvetica,sans-Serif" font-weight="bold" font-size="10.00" fill="#1f3a5f">Família &#160;relatedTo</text>
<text xml:space="preserve" text-anchor="start" x="591.01" y="-162.5" font-family="Helvetica,sans-Serif" font-size="10.00" fill="#1f3a5f"> &#160;(sub&#45;propriedades ponderadas)</text>
</g>
<!-- s_anchor -->
<g id="node1" class="node">
<title>s_anchor</title>
<ellipse fill="#1f3a5f" stroke="#1f3a5f" stroke-width="1.5" cx="785.01" cy="-370.15" rx="72" ry="32.4"/>
<text xml:space="preserve" text-anchor="start" x="739.26" y="-371.15" font-family="Helvetica,sans-Serif" font-weight="bold" font-size="10.00" fill="white">ApplicationSession</text>
<text xml:space="preserve" text-anchor="start" x="751.64" y="-362.1" font-family="Helvetica,sans-Serif" font-size="9.00" fill="#dde5ee">s_a3f2 &#160;(âncora)</text>
</g>
<!-- s_b71c -->
<g id="node2" class="node">
<title>s_b71c</title>
<ellipse fill="#dde5ee" stroke="#1f3a5f" stroke-width="1.2" cx="76.01" cy="-239.5" rx="76.01" ry="19.09"/>
<text xml:space="preserve" text-anchor="start" x="30.26" y="-240.5" font-family="Helvetica,sans-Serif" font-weight="bold" font-size="10.00" fill="#1a1a1a">ApplicationSession</text>
<text xml:space="preserve" text-anchor="start" x="61.01" y="-231.45" font-family="Helvetica,sans-Serif" font-size="9.00" fill="#1f3a5f">s_b71c</text>
</g>
<!-- s_anchor&#45;&gt;s_b71c -->
<g id="edge1" class="edge">
<title>s_anchor&#45;&gt;s_b71c</title>
<path fill="none" stroke="#1f3a5f" stroke-width="1.1" stroke-dasharray="5,2" d="M707.09,-355.01C568.62,-329.88 281.69,-277.82 147.77,-253.52"/>
<polygon fill="#1f3a5f" stroke="#1f3a5f" stroke-width="1.1" points="706.21,-358.41 716.67,-356.75 707.46,-351.52 706.21,-358.41"/>
<polygon fill="#1f3a5f" stroke="#1f3a5f" stroke-width="1.1" points="148.56,-250.11 138.1,-251.77 147.31,-256.99 148.56,-250.11"/>
<text xml:space="preserve" text-anchor="start" x="409.26" y="-297.62" font-family="Helvetica,sans-Serif" font-size="8.00" fill="#1f3a5f">relatedByTLSFingerprint</text>
</g>
<!-- s_c92d -->
<g id="node3" class="node">
<title>s_c92d</title>
<ellipse fill="#dde5ee" stroke="#1f3a5f" stroke-width="1.2" cx="345.01" cy="-239.5" rx="76.01" ry="19.09"/>
<text xml:space="preserve" text-anchor="start" x="299.26" y="-240.5" font-family="Helvetica,sans-Serif" font-weight="bold" font-size="10.00" fill="#1a1a1a">ApplicationSession</text>
<text xml:space="preserve" text-anchor="start" x="330.01" y="-231.45" font-family="Helvetica,sans-Serif" font-size="9.00" fill="#1f3a5f">s_c92d</text>
</g>
<!-- s_anchor&#45;&gt;s_c92d -->
<g id="edge2" class="edge">
<title>s_anchor&#45;&gt;s_c92d</title>
<path fill="none" stroke="#1f3a5f" stroke-width="1.1" stroke-dasharray="5,2" d="M714.02,-348.39C628.06,-323.26 484.82,-281.38 404.42,-257.87"/>
<polygon fill="#1f3a5f" stroke="#1f3a5f" stroke-width="1.1" points="713.04,-351.75 723.62,-351.2 715,-345.03 713.04,-351.75"/>
<polygon fill="#1f3a5f" stroke="#1f3a5f" stroke-width="1.1" points="405.69,-254.59 395.11,-255.15 403.72,-261.31 405.69,-254.59"/>
<text xml:space="preserve" text-anchor="start" x="551.82" y="-297.62" font-family="Helvetica,sans-Serif" font-size="8.00" fill="#1f3a5f">relatedByTemporalPattern</text>
</g>
<!-- s_d4f8 -->
<g id="node4" class="node">
<title>s_d4f8</title>
<ellipse fill="#dde5ee" stroke="#1f3a5f" stroke-width="1.2" cx="619.01" cy="-239.5" rx="76.01" ry="19.09"/>
<text xml:space="preserve" text-anchor="start" x="573.26" y="-240.5" font-family="Helvetica,sans-Serif" font-weight="bold" font-size="10.00" fill="#1a1a1a">ApplicationSession</text>
<text xml:space="preserve" text-anchor="start" x="605.14" y="-231.45" font-family="Helvetica,sans-Serif" font-size="9.00" fill="#1f3a5f">s_d4f8</text>
</g>
<!-- s_anchor&#45;&gt;s_d4f8 -->
<g id="edge3" class="edge">
<title>s_anchor&#45;&gt;s_d4f8</title>
<path fill="none" stroke="#1f3a5f" stroke-width="1.1" stroke-dasharray="5,2" d="M735.09,-336.69C720.6,-326.8 704.94,-315.66 691.01,-304.75 675.54,-292.63 659.13,-278.13 645.89,-265.97"/>
<polygon fill="#1f3a5f" stroke="#1f3a5f" stroke-width="1.1" points="732.79,-339.36 743.04,-342.06 736.71,-333.56 732.79,-339.36"/>
<polygon fill="#1f3a5f" stroke="#1f3a5f" stroke-width="1.1" points="648.63,-263.73 638.91,-259.5 643.87,-268.86 648.63,-263.73"/>
<text xml:space="preserve" text-anchor="start" x="691.01" y="-297.62" font-family="Helvetica,sans-Serif" font-size="8.00" fill="#1f3a5f">relatedByReusedIdentity</text>
</g>
<!-- identity -->
<g id="node5" class="node">
<title>identity</title>
<polygon fill="#f5f5f5" stroke="#6b6b6b" points="845.51,-262 724.51,-262 724.51,-217 845.51,-217 845.51,-262"/>
<text xml:space="preserve" text-anchor="start" x="732.51" y="-249.5" font-family="Helvetica,sans-Serif" font-weight="bold" font-size="10.00" fill="#1a1a1a">Identity</text>
<text xml:space="preserve" text-anchor="start" x="732.51" y="-240.45" font-family="Helvetica,sans-Serif" font-size="9.00" fill="#4a4a4a">cookie = sid_a3f2</text>
<text xml:space="preserve" text-anchor="start" x="732.51" y="-231.45" font-family="Helvetica,sans-Serif" font-size="9.00" fill="#4a4a4a">tls_ja4 = t13d_1516...</text>
<text xml:space="preserve" text-anchor="start" x="732.51" y="-222.45" font-family="Helvetica,sans-Serif" font-size="9.00" fill="#4a4a4a">username (se observado)</text>
</g>
<!-- s_anchor&#45;&gt;identity -->
<g id="edge6" class="edge">
<title>s_anchor&#45;&gt;identity</title>
<path fill="none" stroke="#1f3a5f" stroke-width="1.3" d="M785.01,-337.02C785.01,-317.85 785.01,-293.54 785.01,-274.11"/>
<polygon fill="#1f3a5f" stroke="#1f3a5f" stroke-width="1.3" points="788.51,-274.12 785.01,-264.12 781.51,-274.12 788.51,-274.12"/>
<text xml:space="preserve" text-anchor="start" x="785.01" y="-297.2" font-family="Helvetica,sans-Serif" font-weight="bold" font-size="9.00" fill="#1f3a5f">hasIdentity</text>
</g>
<!-- endpoint -->
<g id="node6" class="node">
<title>endpoint</title>
<polygon fill="#f5f5f5" stroke="#6b6b6b" points="1009.64,-257.5 874.39,-257.5 874.39,-221.5 1009.64,-221.5 1009.64,-257.5"/>
<text xml:space="preserve" text-anchor="start" x="882.39" y="-245" font-family="Helvetica,sans-Serif" font-weight="bold" font-size="10.00" fill="#1a1a1a">Endpoint</text>
<text xml:space="preserve" text-anchor="start" x="882.39" y="-235.95" font-family="Helvetica,sans-Serif" font-size="9.00" fill="#4a4a4a">path = /api/checkout/payment</text>
<text xml:space="preserve" text-anchor="start" x="903.01" y="-226.95" font-family="Helvetica,sans-Serif" font-size="9.00" fill="#4a4a4a">type = APIEndpoint</text>
</g>
<!-- s_anchor&#45;&gt;endpoint -->
<g id="edge7" class="edge">
<title>s_anchor&#45;&gt;endpoint</title>
<path fill="none" stroke="#1f3a5f" stroke-width="1.3" d="M819.08,-341.23C846.71,-318.59 885.29,-286.98 911.83,-265.24"/>
<polygon fill="#1f3a5f" stroke="#1f3a5f" stroke-width="1.3" points="913.97,-268 919.49,-258.96 909.54,-262.59 913.97,-268"/>
<text xml:space="preserve" text-anchor="start" x="872.91" y="-297.2" font-family="Helvetica,sans-Serif" font-weight="bold" font-size="9.00" fill="#1f3a5f">targets</text>
</g>
<!-- behavior -->
<g id="node7" class="node">
<title>behavior</title>
<polygon fill="#f5f5f5" stroke="#6b6b6b" points="1145.76,-262 1038.26,-262 1038.26,-217 1145.76,-217 1145.76,-262"/>
<text xml:space="preserve" text-anchor="start" x="1046.26" y="-249.5" font-family="Helvetica,sans-Serif" font-weight="bold" font-size="10.00" fill="#1a1a1a">Behavior</text>
<text xml:space="preserve" text-anchor="start" x="1046.26" y="-240.45" font-family="Helvetica,sans-Serif" font-size="9.00" fill="#4a4a4a">BotBehavior</text>
<text xml:space="preserve" text-anchor="start" x="1046.26" y="-231.45" font-family="Helvetica,sans-Serif" font-size="9.00" fill="#4a4a4a">byte_rate = 0.067 B/s</text>
<text xml:space="preserve" text-anchor="start" x="1046.26" y="-222.45" font-family="Helvetica,sans-Serif" font-size="9.00" fill="#4a4a4a">conn_duration = 165 s</text>
</g>
<!-- s_anchor&#45;&gt;behavior -->
<g id="edge8" class="edge">
<title>s_anchor&#45;&gt;behavior</title>
<path fill="none" stroke="#1f3a5f" stroke-width="1.3" d="M837.44,-347.18C890.34,-325.01 972.08,-290.76 1028.6,-267.08"/>
<polygon fill="#1f3a5f" stroke="#1f3a5f" stroke-width="1.3" points="1029.86,-270.34 1037.73,-263.25 1027.16,-263.88 1029.86,-270.34"/>
<text xml:space="preserve" text-anchor="start" x="956.89" y="-297.2" font-family="Helvetica,sans-Serif" font-weight="bold" font-size="9.00" fill="#1f3a5f">exhibitsBehavior</text>
</g>
<!-- mitigation -->
<g id="node8" class="node">
<title>mitigation</title>
<polygon fill="#f5f5f5" stroke="#6b6b6b" points="1295.51,-257.5 1174.51,-257.5 1174.51,-221.5 1295.51,-221.5 1295.51,-257.5"/>
<text xml:space="preserve" text-anchor="start" x="1182.51" y="-245" font-family="Helvetica,sans-Serif" font-weight="bold" font-size="10.00" fill="#1a1a1a">Mitigation</text>
<text xml:space="preserve" text-anchor="start" x="1182.51" y="-235.95" font-family="Helvetica,sans-Serif" font-size="9.00" fill="#4a4a4a">Challenge</text>
<text xml:space="preserve" text-anchor="start" x="1182.51" y="-226.95" font-family="Helvetica,sans-Serif" font-size="9.00" fill="#4a4a4a">scope derivado do cluster</text>
</g>
<!-- s_anchor&#45;&gt;mitigation -->
<g id="edge9" class="edge">
<title>s_anchor&#45;&gt;mitigation</title>
<path fill="none" stroke="#1f3a5f" stroke-width="1.3" d="M848.49,-354.11C899.63,-341.71 973.26,-323.22 1037.01,-304.75 1082.98,-291.43 1134.38,-274.7 1173.28,-261.65"/>
<polygon fill="#1f3a5f" stroke="#1f3a5f" stroke-width="1.3" points="1174.19,-265.04 1182.56,-258.53 1171.96,-258.4 1174.19,-265.04"/>
<text xml:space="preserve" text-anchor="start" x="1069.66" y="-297.2" font-family="Helvetica,sans-Serif" font-weight="bold" font-size="9.00" fill="#1f3a5f">mitigatedBy</text>
</g>
<!-- s_b71c&#45;&gt;s_c92d -->
<g id="edge4" class="edge">
<title>s_b71c&#45;&gt;s_c92d</title>
<path fill="none" stroke="#6b6b6b" stroke-dasharray="5,2" d="M163.66,-239.5C193.63,-239.5 227.16,-239.5 257.15,-239.5"/>
<polygon fill="#6b6b6b" stroke="#6b6b6b" points="163.89,-236 153.89,-239.5 163.89,-243 163.89,-236"/>
<polygon fill="#6b6b6b" stroke="#6b6b6b" points="256.94,-243 266.94,-239.5 256.94,-236 256.94,-243"/>
<text xml:space="preserve" text-anchor="start" x="166.64" y="-244.75" font-family="Helvetica,sans-Serif" font-size="8.00" fill="#6b6b6b">relatedByTLSFingerprint</text>
</g>
<!-- s_c92d&#45;&gt;s_d4f8 -->
<g id="edge5" class="edge">
<title>s_c92d&#45;&gt;s_d4f8</title>
<path fill="none" stroke="#6b6b6b" stroke-dasharray="5,2" d="M432.63,-239.5C464.14,-239.5 499.68,-239.5 531.21,-239.5"/>
<polygon fill="#6b6b6b" stroke="#6b6b6b" points="432.85,-236 422.85,-239.5 432.85,-243 432.85,-236"/>
<polygon fill="#6b6b6b" stroke="#6b6b6b" points="531.11,-243 541.11,-239.5 531.11,-236 531.11,-243"/>
<text xml:space="preserve" text-anchor="start" x="435.51" y="-244.75" font-family="Helvetica,sans-Serif" font-size="8.00" fill="#6b6b6b">relatedByTemporalPattern</text>
</g>
<!-- family -->
<g id="node9" class="node">
<title>family</title>
<text xml:space="preserve" text-anchor="start" x="547.39" y="-134.2" font-family="Helvetica,sans-Serif" font-weight="bold" font-size="9.00" fill="#1a1a1a">peso alto &#160;(w = 0.9 – 1.0)</text>
<text xml:space="preserve" text-anchor="start" x="547.39" y="-120.5" font-family="Helvetica,sans-Serif" font-size="9.00" fill="#1a1a1a"> &#160;• &#160;relatedByTLSFingerprint</text>
<text xml:space="preserve" text-anchor="start" x="547.39" y="-106.75" font-family="Helvetica,sans-Serif" font-size="9.00" fill="#1a1a1a"> &#160;• &#160;relatedByReusedIdentity</text>
<text xml:space="preserve" text-anchor="start" x="547.39" y="-93" font-family="Helvetica,sans-Serif" font-size="9.00" fill="#1a1a1a"> &#160;• &#160;relatedByTemporalPattern</text>
<text xml:space="preserve" text-anchor="start" x="547.39" y="-79.2" font-family="Helvetica,sans-Serif" font-weight="bold" font-size="9.00" fill="#1a1a1a">peso médio &#160;(w = 0.6)</text>
<text xml:space="preserve" text-anchor="start" x="547.39" y="-65.5" font-family="Helvetica,sans-Serif" font-size="9.00" fill="#1a1a1a"> &#160;• &#160;relatedByPayloadSignature</text>
<text xml:space="preserve" text-anchor="start" x="547.39" y="-51.75" font-family="Helvetica,sans-Serif" font-size="9.00" fill="#1a1a1a"> &#160;• &#160;relatedByEndpointConvergence</text>
<text xml:space="preserve" text-anchor="start" x="547.39" y="-37.95" font-family="Helvetica,sans-Serif" font-weight="bold" font-size="9.00" fill="#1a1a1a">peso baixo &#160;(w = 0.3)</text>
<text xml:space="preserve" text-anchor="start" x="547.39" y="-24.25" font-family="Helvetica,sans-Serif" font-size="9.00" fill="#1a1a1a"> &#160;• &#160;relatedByNetworkProximity</text>
</g>
<!-- s_d4f8&#45;&gt;family -->
</g>
</svg>
